<svg version="1.1" xmlns="http://www.w3.org/2000/svg" xmlns:xlink="http://www.w3.org/1999/xlink" viewBox="0 0 75 75" preserveAspectRatio="xMinYMin meet">
  <path fill="white" d="M20.245,54.238V20.761h3.668l3.978,5.683L37.5,39.772l9.558-13.329l3.978-5.683h3.721v33.477h-4.132V27.839
    c-0.932,1.498-2.017,3.1-3.307,4.908L37.5,46.541l-9.919-13.845l-3.203-4.856v26.399H20.245z"/>
  <path fill="white" d="M65.535,56.296C59.478,65.316,49.183,71.253,37.5,71.253c-18.642,0-33.753-15.112-33.753-33.753
  c0-18.641,15.111-33.752,33.753-33.752c11.683,0,21.978,5.937,28.035,14.956l3.113-2.087C61.917,6.596,50.479,0,37.5,0
  C16.789,0,0,16.79,0,37.5C0,58.211,16.789,75,37.5,75c12.979,0,24.417-6.595,31.148-16.616L65.535,56.296z"/>
</svg>
